<svg width="12" height="12" viewBox="0 0 12 12" fill="none" xmlns="http://www.w3.org/2000/svg">
<path fill-rule="evenodd" clip-rule="evenodd" d="M10.8 5.4C10.8 6.48 10.5 7.43999 9.95998 8.28L11.64 9.96C12.12 10.44 12.12 11.16 11.64 11.64C11.16 12.12 10.44 12.12 9.95998 11.64L8.27999 9.96C7.44001 10.5 6.47999 10.8 5.4 10.8C2.4 10.8 0 8.4 0 5.4C0 2.4 2.4 0 5.4 0C8.39999 0 10.8 2.4 10.8 5.4ZM5.4 9C7.38823 9 8.99999 7.38822 8.99999 5.4C8.99999 3.41178 7.38823 1.8 5.4 1.8C3.41177 1.8 1.8 3.41178 1.8 5.4C1.8 7.38822 3.41177 9 5.4 9Z" fill="#333333"/>
</svg>
